# xmcd CD database file
#
# Track frame offsets:
#	150
#	40760
#	67625
#	94210
#	116967
#	134577
#	159090
#	188492
#	218705
#	243775
#	266757
#	286475
#	314317
#
# Disc length: 4564 seconds
#
# Revision: 0
# Processed by: cddbd v1.5.2PL0 Copyright (c) Steve Scherf et al.
# Submitted via: CDex 1.51
#
DISCID=b211d20d
DTITLE=New Orleans Hot Shots - I Get The Blues When It Rains
DYEAR=2003
DGENRE=Jazz
TTITLE0=JUST A BLUES
TTITLE1=LADY BE GOOD
TTITLE2=INDIAN LOVE CALL
TTITLE3=IS IT TRUE WHAT THEY SAY ABOUT DIXIE?
TTITLE4=JAMBALAYA
TTITLE5=I WONDER WHO' KISSING HER NOW
TTITLE6=SHINE
TTITLE7=NEW ORLEANS FUNCTION (FLEE AS A BIRD and DIDN'T HE RAMBLE)
TTITLE8=PANAMA
TTITLE9=BEAUTIFUL DREAMER
TTITLE10=WHEN I GROW TOO OLD TO DREAM
TTITLE11=MARIE
TTITLE12=I GET THE BLUES WHEN IT RAINS
EXTD=YEAR: 2003
EXTT0=
EXTT1=
EXTT2=
EXTT3=
EXTT4=
EXTT5=
EXTT6=
EXTT7=
EXTT8=
EXTT9=
EXTT10=
EXTT11=
EXTT12=
PLAYORDER=
